<svg xmlns="http://www.w3.org/2000/svg" xmlns:xlink="http://www.w3.org/1999/xlink" width="206" height="49" viewBox="0 0 206 49">
    <defs>
        <path id="lr5v9ne4oa" d="M0 0.136L46.923 0.136 46.923 47.059 0 47.059z"/>
        <path id="8xuogpz4lc" d="M0 47.393L205.592 47.393 205.592 0.471 0 0.471z"/>
    </defs>
    <g fill="none" fill-rule="evenodd">
        <path fill="#03E0C5" d="M39.102 43.807c-2.334 0-4.233-1.9-4.233-4.234s1.899-4.233 4.233-4.233c2.335 0 4.234 1.899 4.234 4.233 0 2.334-1.9 4.234-4.234 4.234M19.228 23.932c0-2.334 1.899-4.233 4.234-4.233 2.334 0 4.233 1.899 4.233 4.233 0 2.335-1.899 4.234-4.233 4.234-2.335 0-4.234-1.9-4.234-4.234m19.874 7.82c-1.51 0-2.919.43-4.114 1.17l-4.876-4.876c.741-1.195 1.17-2.604 1.17-4.114 0-4.32-3.502-7.82-7.82-7.82-4.32 0-7.82 3.5-7.82 7.82 0 4.319 3.5 7.82 7.82 7.82 1.51 0 2.918-.428 4.113-1.17l4.877 4.877c-.741 1.195-1.17 2.604-1.17 4.114 0 4.32 3.501 7.82 7.82 7.82 4.32 0 7.82-3.5 7.82-7.82s-3.5-7.82-7.82-7.82"/>
        <g transform="translate(0 .335)">
            <mask id="mj19ldfu9b" fill="#fff">
                <use xlink:href="#lr5v9ne4oa"/>
            </mask>
            <path fill="#03E0C5" d="M7.82 43.472c-2.334 0-4.233-1.9-4.233-4.233 0-2.335 1.9-4.234 4.233-4.234 2.335 0 4.234 1.899 4.234 4.234 0 2.334-1.9 4.233-4.234 4.233M3.587 7.957c0-2.335 1.9-4.234 4.233-4.234 2.335 0 4.234 1.9 4.234 4.234s-1.9 4.233-4.234 4.233-4.233-1.9-4.233-4.233m35.516-4.234c2.334 0 4.233 1.9 4.233 4.234s-1.9 4.233-4.233 4.233c-2.335 0-4.234-1.9-4.234-4.233 0-2.335 1.9-4.234 4.234-4.234M9.614 31.627V15.568c2.878-.676 5.142-2.94 5.818-5.818h16.059c.81 3.454 3.91 6.027 7.612 6.027 4.318 0 7.82-3.501 7.82-7.82 0-4.32-3.502-7.821-7.82-7.821-3.702 0-6.801 2.573-7.612 6.027H15.432C14.621 2.709 11.522.136 7.82.136 3.501.136 0 3.638 0 7.956c0 3.702 2.573 6.8 6.027 7.612v16.059C2.573 32.438 0 35.537 0 39.239c0 4.319 3.501 7.82 7.82 7.82 4.32 0 7.821-3.501 7.821-7.82 0-3.702-2.573-6.8-6.027-7.612" mask="url(#mj19ldfu9b)"/>
        </g>
        <path fill="#4A4F4F" d="M63.818 10.702c.475 0 .76-.244.76-.921V4.846c0-.678-.285-.922-.76-.922h-.759v6.778h.76zm-2.25-8.134h2.278c1.491 0 2.223.827 2.223 2.346v4.799c0 1.518-.732 2.345-2.223 2.345h-2.278v-9.49zM73.31 2.568L77.377 2.568 77.377 3.924 74.801 3.924 74.801 6.432 76.848 6.432 76.848 7.788 74.801 7.788 74.801 10.702 77.377 10.702 77.377 12.058 73.31 12.058zM84.075 2.568L85.58 2.568 86.556 9.93 86.583 9.93 87.559 2.568 88.929 2.568 87.492 12.058 85.512 12.058zM95.885 2.568L99.952 2.568 99.952 3.924 97.376 3.924 97.376 6.432 99.423 6.432 99.423 7.788 97.376 7.788 97.376 10.702 99.952 10.702 99.952 12.058 95.885 12.058zM107.043 2.568L108.534 2.568 108.534 10.702 110.988 10.702 110.988 12.058 107.043 12.058zM120.818 9.902V4.724c0-.678-.298-.936-.773-.936-.474 0-.772.258-.772.936v5.178c0 .678.298.936.772.936.475 0 .773-.258.773-.936m-3.037-.095V4.82c0-1.519.8-2.387 2.264-2.387 1.465 0 2.265.868 2.265 2.387v4.988c0 1.519-.8 2.387-2.265 2.387-1.464 0-2.264-.868-2.264-2.387M131.746 6.839c.475 0 .733-.217.733-.895V4.82c0-.678-.258-.895-.733-.895h-.705v2.915h.705zm-2.196-4.27h2.196c1.492 0 2.224.826 2.224 2.345v.935c0 1.519-.732 2.345-2.224 2.345h-.705v3.864h-1.49v-9.49zM141.02 2.568L145.088 2.568 145.088 3.924 142.512 3.924 142.512 6.432 144.559 6.432 144.559 7.788 142.512 7.788 142.512 10.702 145.088 10.702 145.088 12.058 141.02 12.058zM154.213 6.635c.556 0 .894-.244.894-1.003V4.9c0-.678-.23-.976-.759-.976h-.677v2.711h.542zm-2.034-4.067h2.21c1.546 0 2.21.719 2.21 2.183v.583c0 .976-.312 1.6-.976 1.87v.028c.746.23.99.935.99 2.006v1.668c0 .46.013.8.162 1.152h-1.518c-.081-.244-.135-.393-.135-1.166V9.157c0-.882-.258-1.166-.936-1.166h-.515v4.067h-1.492v-9.49zM61.568 21.546L66.449 21.546 66.449 32.317 78.327 21.546 85.031 21.546 74.194 30.982 85.714 44.781 79.108 44.781 70.387 34.075 66.449 37.556 66.449 44.781 61.568 44.781zM109.046 33.163c0-5.109-3.125-8.623-8.592-8.623-5.467 0-8.591 3.514-8.591 8.623s3.124 8.624 8.591 8.624c5.467 0 8.592-3.515 8.592-8.624m-22.26 0c0-6.54 3.84-12.268 13.668-12.268s13.668 5.727 13.668 12.268c0 6.54-3.84 12.268-13.668 12.268-9.827 0-13.667-5.727-13.667-12.268M117.57 21.546L122.451 21.546 122.451 30.592 136.867 30.592 136.867 21.546 141.748 21.546 141.748 44.781 136.867 44.781 136.867 34.237 122.451 34.237 122.451 44.781 117.57 44.781zM146.303 21.546h4.882V34.66c0 3.22.13 7.126 6.476 7.126 6.378 0 6.507-3.906 6.507-7.126V21.546h4.882V34.79c0 3.84-.13 10.641-11.39 10.641-11.227 0-11.357-6.8-11.357-10.641V21.546zM178.486 41.136h8.754c2.18 0 4.393-.423 4.393-3.417 0-2.148-1.497-3.287-3.678-3.287h-9.47v6.704zm0-10.153h9.111c1.367 0 3.157-.326 3.157-2.961 0-1.92-1.171-2.832-4.003-2.832h-8.265v5.793zm-4.881-9.437h15.36c5.303 0 6.67 2.831 6.67 5.792 0 3.32-1.92 4.263-3.157 4.848 1.79.554 4.231 1.856 4.231 5.761 0 2.603-1.627 6.834-7.907 6.834h-15.197V21.546z"/>
        <mask id="z01zjeprzd" fill="#fff">
            <use xlink:href="#8xuogpz4lc"/>
        </mask>
        <path fill="#4A4F4F" d="M200.711 44.781L205.592 44.781 205.592 21.546 200.711 21.546z" mask="url(#z01zjeprzd)"/>
    </g>
</svg>
